<?xml version="1.0" encoding="UTF-8"?>
<svg xmlns="http://www.w3.org/2000/svg" xmlns:xlink="http://www.w3.org/1999/xlink" width="32px" height="32px" viewBox="0 0 32 32" version="1.1">
<g id="surface1">
<rect x="0" y="0" width="32" height="32" style="fill:rgb(0%,0%,0%);fill-opacity:1;stroke:none;"/>
<path style=" stroke:none;fill-rule:evenodd;fill:rgb(76.47059%,16.862746%,18.039216%);fill-opacity:1;" d="M 27.347656 21.832031 C 27.1875 21.75 26.703125 21.710938 26.703125 21.710938 L 27.1875 21.148438 C 27.667969 20.582031 27.144531 19.9375 26.621094 19.976562 C 26.097656 20.015625 24.039062 20.097656 22.222656 20.78125 C 20.40625 21.46875 17.300781 22.355469 12.738281 23.929688 C 10.785156 24.605469 9.089844 25.441406 7.792969 26.179688 C 7.617188 26.277344 6.566406 26.699219 6.40625 26.796875 C 6.269531 26.875 7.03125 26.625 6.90625 26.703125 C 5.714844 27.433594 5.03125 27.964844 5.03125 27.964844 C 5.03125 27.964844 6.242188 27.402344 7.050781 26.917969 C 7.859375 26.433594 8.625 26.148438 8.625 26.148438 C 8.625 26.148438 8.019531 26.675781 7.496094 26.957031 C 6.96875 27.238281 6.121094 27.886719 6.121094 27.886719 C 6.121094 27.886719 8.019531 26.875 8.746094 26.472656 C 9.472656 26.070312 10.84375 25.425781 10.84375 25.425781 C 10.84375 25.425781 10.277344 25.90625 9.671875 26.433594 C 9.066406 26.957031 9.835938 26.835938 9.835938 26.835938 C 9.835938 26.835938 10.238281 26.59375 10.761719 26.3125 C 11.289062 26.027344 12.835938 25.261719 13.441406 24.898438 C 14.046875 24.535156 14.21875 24.429688 14.460938 24.390625 C 14.703125 24.351562 16.171875 23.808594 17.097656 23.488281 C 18.027344 23.164062 20.929688 22.074219 20.929688 22.074219 C 20.929688 22.074219 22.789062 21.46875 23.554688 21.308594 C 24.320312 21.148438 25.933594 21.148438 25.933594 21.148438 L 25.53125 21.46875 L 24.804688 21.46875 C 24.441406 21.46875 23.515625 21.671875 22.625 21.792969 C 21.738281 21.914062 21.011719 22.195312 20.40625 22.4375 C 19.800781 22.679688 20.328125 22.761719 20.328125 22.761719 C 20.328125 22.761719 20.730469 22.800781 21.414062 22.761719 C 22.101562 22.71875 23.273438 22.519531 23.796875 22.355469 C 24.320312 22.195312 23.796875 22.558594 23.796875 22.558594 C 23.796875 22.558594 22.746094 23.246094 22.304688 23.648438 C 21.859375 24.050781 22.546875 24.09375 22.546875 24.09375 L 22.222656 24.335938 C 21.898438 24.574219 22.464844 24.738281 22.949219 24.535156 C 23.433594 24.335938 24.523438 23.648438 25.492188 22.882812 C 26.460938 22.113281 26.582031 21.832031 26.582031 21.832031 L 27.105469 21.953125 C 27.628906 22.074219 27.507812 21.914062 27.347656 21.832031 Z M 11.289062 25.785156 C 10.601562 26.230469 9.996094 26.433594 9.996094 26.433594 L 11.167969 25.382812 C 11.167969 25.382812 11.488281 25.304688 11.890625 25.179688 C 12.296875 25.058594 12.699219 24.816406 12.699219 24.816406 C 12.699219 24.816406 11.972656 25.34375 11.289062 25.785156 Z M 12.175781 24.65625 C 11.527344 24.980469 9.753906 25.585938 9.753906 25.585938 L 9.109375 25.828125 C 9.109375 25.828125 10.078125 25.222656 10.761719 24.941406 C 11.449219 24.65625 12.253906 24.253906 12.820312 24.09375 L 13.386719 23.929688 C 13.386719 23.929688 12.820312 24.335938 12.175781 24.65625 Z M 15.765625 23.367188 C 14.675781 23.769531 13.546875 24.132812 13.546875 24.132812 C 13.546875 24.132812 14.734375 23.554688 15.539062 23.269531 C 16.347656 22.988281 17.257812 22.679688 17.257812 22.679688 L 17.542969 22.640625 C 17.542969 22.640625 16.855469 22.960938 15.765625 23.367188 Z M 25.570312 20.703125 L 24.160156 20.78125 C 24.160156 20.78125 25.449219 20.300781 26.097656 20.257812 C 26.742188 20.21875 27.46875 20.378906 27.0625 20.542969 C 26.660156 20.703125 25.570312 20.703125 25.570312 20.703125 Z M 26.621094 20.824219 L 26.257812 21.023438 L 26.21875 20.824219 Z M 23.070312 22.316406 C 22.425781 22.4375 20.972656 22.476562 20.972656 22.476562 C 20.972656 22.476562 21.777344 22.277344 22.667969 22.113281 C 23.554688 21.953125 24.84375 21.792969 24.84375 21.792969 C 24.84375 21.792969 23.714844 22.195312 23.070312 22.316406 Z M 24.925781 22.15625 L 24.523438 22.316406 L 24.199219 22.519531 L 24.441406 22.195312 Z M 22.34375 23.808594 L 22.585938 23.609375 C 22.828125 23.40625 23.59375 22.960938 23.59375 22.960938 L 22.585938 23.851562 Z M 24.523438 23.324219 C 24.078125 23.648438 23.835938 23.808594 22.988281 24.253906 C 22.140625 24.699219 22.789062 24.09375 23.070312 23.769531 C 23.351562 23.445312 23.996094 22.960938 23.996094 22.960938 L 24.964844 23.003906 Z M 25.371094 22.640625 L 24.523438 22.597656 C 24.523438 22.597656 25.007812 22.4375 25.410156 22.234375 C 25.8125 22.035156 26.296875 21.832031 26.296875 21.832031 Z M 25.8125 21.550781 L 26.097656 21.308594 L 26.378906 21.347656 Z M 26.460938 21.628906 C 26.460938 21.628906 26.742188 21.148438 26.742188 20.984375 L 27.105469 20.90625 Z M 26.460938 21.628906 "/>
<path style=" stroke:none;fill-rule:evenodd;fill:rgb(100%,100%,100%);fill-opacity:1;" d="M 8.855469 11.222656 C 9.179688 12.027344 9.664062 12.914062 10.027344 14.046875 C 10.390625 15.175781 11.035156 16.667969 11.359375 17.191406 C 11.679688 17.71875 11.558594 17.3125 11.558594 17.3125 L 11.4375 16.628906 C 11.4375 16.628906 11.679688 16.0625 11.800781 15.742188 C 11.921875 15.417969 12.449219 14.609375 12.449219 14.609375 L 12.125 15.699219 L 12.691406 14.730469 C 12.691406 14.730469 12.648438 15.257812 12.527344 15.78125 C 12.40625 16.304688 12.527344 16.507812 12.769531 15.902344 C 12.90625 15.566406 13.78125 13.472656 13.78125 13.472656 C 14.507812 11.617188 14.824219 10.378906 14.824219 10.378906 L 15.308594 11.507812 C 15.308594 11.507812 15.792969 12.277344 16.035156 12.761719 C 16.277344 13.246094 16.277344 12.71875 16.117188 12.398438 C 15.957031 12.074219 15.875 11.671875 15.875 11.671875 C 15.875 11.671875 16.035156 11.792969 16.277344 12.15625 C 16.519531 12.519531 17.613281 13.550781 17.777344 13.957031 C 17.9375 14.359375 17.9375 14.609375 17.9375 14.609375 L 16.886719 13.761719 L 16.28125 13.238281 L 16.394531 13.554688 C 16.394531 13.554688 16.886719 14.085938 17.492188 14.652344 C 18.097656 15.214844 18.785156 15.941406 18.785156 15.941406 C 18.785156 15.941406 18.824219 16.0625 18.785156 16.546875 C 18.742188 17.03125 18.984375 16.75 18.984375 16.75 C 18.984375 16.75 19.015625 16.539062 19.175781 15.488281 L 19.285156 15.933594 C 19.285156 15.933594 19.285156 16.222656 19.226562 16.574219 L 19.171875 16.921875 L 19.460938 16.515625 L 19.578125 15.699219 L 19.636719 15.058594 L 19.925781 14.417969 L 20.160156 13.601562 L 20.277344 12.496094 L 20.625 11.386719 L 20.800781 10.980469 L 20.917969 10.339844 L 21.210938 9.230469 L 21.617188 8.007812 C 21.617188 8.007812 21.910156 7.367188 22.082031 6.902344 C 22.257812 6.4375 22.316406 5.5625 22.316406 5.5625 C 22.316406 5.5625 22.140625 5.621094 22.023438 6.144531 C 21.910156 6.667969 21.617188 7.191406 21.617188 7.191406 L 21.269531 8.183594 L 21.035156 8.882812 L 20.800781 9.929688 L 20.859375 8.53125 C 20.859375 8.53125 21.035156 7.835938 21.152344 7.308594 C 21.269531 6.785156 21.324219 5.269531 21.324219 5.269531 C 21.324219 5.269531 21.09375 5.910156 21.035156 6.492188 C 20.976562 7.078125 20.683594 7.890625 20.683594 7.890625 L 20.453125 8.707031 L 20.453125 7.078125 C 20.453125 7.078125 20.394531 6.144531 20.277344 5.910156 L 20.101562 6.609375 L 19.753906 7.425781 L 19.460938 8.300781 L 19.402344 8.707031 L 19.054688 9.816406 L 18.761719 10.570312 L 18.585938 11.328125 C 18.585938 11.328125 18.472656 11.96875 18.355469 12.144531 C 18.257812 12.289062 18.042969 12.515625 17.972656 12.585938 C 17.550781 12.101562 17.109375 11.777344 17.015625 11.5625 C 16.894531 11.28125 16.640625 10.902344 16.320312 10.339844 C 15.996094 9.773438 15.792969 8.765625 15.792969 8.765625 L 16.292969 7.300781 L 15.59375 8.160156 C 15.59375 8.160156 15.960938 6.941406 16.160156 6.253906 C 16.363281 5.570312 16.082031 5.972656 15.960938 6.214844 C 15.839844 6.457031 15.675781 6.703125 15.554688 6.703125 C 15.433594 6.703125 15.066406 7.796875 15.066406 7.796875 L 14.949219 7.835938 L 14.746094 7.554688 C 14.746094 7.554688 14.421875 7.191406 14.140625 6.707031 C 13.859375 6.222656 13.980469 6.707031 13.980469 6.707031 L 14.34375 7.351562 L 14.867188 8.160156 L 14.828125 8.847656 L 14.625 8.847656 C 14.421875 8.847656 14.300781 9.128906 14.300781 9.128906 C 14.300781 9.128906 14.222656 9.53125 14.101562 10.058594 C 13.980469 10.582031 13.414062 11.550781 12.96875 12.4375 C 12.527344 13.324219 12.570312 13.199219 12.410156 13.640625 C 12.246094 14.085938 12.207031 13.761719 12.207031 13.761719 C 12.207031 13.761719 11.933594 12.800781 11.648438 12.277344 C 11.367188 11.753906 10.839844 10.574219 10.148438 9.324219 C 9.441406 8.042969 9.703125 9.363281 9.703125 9.363281 L 9.746094 10.496094 C 9.746094 10.496094 9.542969 9.929688 9.21875 9.042969 C 8.898438 8.15625 8.976562 8.800781 9.019531 9.285156 C 9.058594 9.769531 9.261719 10.496094 9.582031 11.585938 C 9.90625 12.671875 9.460938 11.785156 9.460938 11.785156 L 9.140625 11.058594 C 9.140625 11.058594 8.496094 9.566406 8.050781 8.71875 C 7.605469 7.871094 7.890625 8.839844 7.890625 8.839844 C 7.890625 8.839844 8.535156 10.414062 8.855469 11.222656 Z M 18.824219 15.621094 L 17.980469 14.65625 L 18.851562 15.183594 L 17.84375 13.964844 L 18.371094 14.136719 L 18.613281 14.527344 L 18.867188 15.175781 Z M 19.460938 15.058594 L 19.257812 14.941406 C 19.261719 14.925781 19.265625 14.910156 19.265625 14.894531 L 18.953125 14.03125 L 19.460938 14.359375 Z M 18.703125 11.910156 L 19.054688 10.863281 C 19.167969 10.515625 19.34375 10.105469 19.402344 9.929688 C 19.460938 9.757812 19.460938 9.117188 19.519531 8.941406 C 19.578125 8.765625 19.808594 8.125 19.867188 7.835938 C 19.925781 7.542969 20.21875 7.25 20.21875 7.25 C 20.335938 7.601562 20.160156 8.359375 20.160156 8.359375 C 20.160156 8.359375 20.101562 9.640625 20.042969 10.222656 C 19.984375 10.804688 19.867188 11.445312 19.867188 11.445312 C 19.808594 11.796875 19.34375 12.84375 19.285156 13.367188 C 19.226562 13.894531 19.695312 13.367188 19.695312 13.367188 C 19.695312 13.367188 19.695312 13.601562 19.636719 13.894531 C 19.578125 14.183594 19.285156 14.066406 19.285156 14.066406 C 19.285156 14.066406 19.054688 13.71875 18.820312 13.601562 C 18.585938 13.484375 18.46875 13.019531 18.410156 12.785156 C 18.355469 12.554688 18.703125 11.910156 18.703125 11.910156 Z M 15.148438 9.453125 C 15.148438 9.453125 15.472656 8.96875 15.429688 9.167969 C 15.390625 9.371094 15.59375 9.976562 15.753906 10.339844 C 15.914062 10.703125 15.996094 11.265625 15.996094 11.265625 C 15.996094 11.265625 15.308594 10.539062 15.066406 10.21875 Z M 11.136719 11.722656 C 11.5 12.449219 12.042969 14.125 12.042969 14.125 L 12.042969 14.488281 L 11.4375 15.902344 L 11.316406 15.863281 C 11.316406 15.863281 11.277344 15.78125 11.15625 15.5 C 11.035156 15.214844 10.914062 14.894531 10.914062 14.894531 L 11.359375 15.09375 L 11.277344 14.691406 L 10.996094 14.167969 C 10.710938 13.640625 10.46875 12.59375 10.308594 11.828125 C 10.148438 11.058594 9.945312 9.726562 9.945312 9.726562 C 9.945312 9.726562 10.773438 10.996094 11.136719 11.722656 Z M 11.136719 11.722656 "/>
<path style=" stroke:none;fill-rule:evenodd;fill:rgb(100%,100%,100%);fill-opacity:1;" d="M 24.414062 8.183594 L 24.0625 8.941406 L 24.003906 9.464844 C 24.003906 9.464844 23.539062 10.398438 23.480469 10.570312 L 23.421875 10.746094 L 23.304688 10.222656 C 23.304688 10.222656 23.539062 9.464844 23.714844 8.941406 C 23.890625 8.417969 24.121094 6.902344 24.121094 6.902344 L 22.898438 10.164062 C 22.898438 10.164062 23.597656 7.425781 23.773438 6.378906 C 23.945312 5.328125 24.0625 3.699219 24.0625 3.699219 C 24.0625 3.699219 23.421875 6.261719 23.191406 7.019531 C 22.957031 7.777344 23.015625 8.589844 22.839844 8.882812 C 22.664062 9.175781 22.375 9.757812 22.375 10.105469 C 22.375 10.457031 22.140625 11.386719 22.023438 11.855469 C 21.90625 12.320312 21.324219 13.660156 21.324219 13.660156 C 21.324219 13.660156 21.265625 14.125 21.265625 14.359375 C 21.265625 14.59375 21.207031 14.824219 21.09375 15 C 20.976562 15.175781 20.917969 15.292969 20.917969 15.292969 L 20.859375 15.816406 L 20.742188 16.574219 L 20.394531 17.386719 L 20.035156 18.28125 C 20.15625 18.203125 19.992188 18.765625 19.914062 19.007812 C 19.832031 19.25 19.832031 19.898438 19.832031 19.898438 L 19.992188 19.898438 C 19.992188 19.898438 20.035156 20.460938 19.992188 20.703125 C 19.953125 20.945312 19.792969 20.824219 19.792969 20.824219 L 19.46875 20.300781 C 19.46875 20.300781 18.863281 19.292969 18.703125 19.050781 C 18.539062 18.808594 17.816406 17.796875 17.574219 17.675781 C 17.332031 17.554688 17.289062 17.3125 17.210938 17.113281 C 17.128906 16.910156 16.765625 16.546875 16.402344 16.0625 C 16.039062 15.578125 15.957031 15.660156 15.957031 15.660156 L 15.714844 15.214844 L 15.3125 14.410156 L 14.75 13.5625 C 14.585938 13.320312 14.425781 13.601562 14.425781 13.601562 L 14.0625 14.730469 L 13.617188 16.0625 C 13.617188 16.0625 13.617188 16.226562 13.496094 16.46875 C 13.375 16.707031 13.253906 17.476562 13.253906 17.476562 L 12.691406 19.453125 L 12.609375 19.734375 C 12.527344 20.019531 12.40625 20.261719 12.40625 20.261719 L 11.921875 21.066406 C 11.921875 21.066406 11.84375 21.027344 11.519531 20.378906 C 11.195312 19.734375 11.035156 19.695312 10.875 19.128906 C 10.710938 18.566406 8.535156 13.882812 7.808594 12.1875 C 7.082031 10.496094 5.46875 6.703125 5.46875 6.703125 C 5.46875 6.703125 5.667969 7.914062 5.910156 8.636719 C 6.152344 9.363281 6.558594 10.496094 6.558594 10.496094 C 6.558594 10.496094 7.402344 12.066406 6.757812 11.058594 C 6.113281 10.050781 6.558594 11.300781 6.558594 11.300781 C 6.558594 11.300781 7.324219 13.117188 7.523438 13.761719 C 7.726562 14.410156 7.566406 14.289062 7.363281 13.925781 C 7.160156 13.5625 7.039062 13.320312 6.839844 12.914062 C 6.636719 12.511719 6.074219 11.464844 5.667969 10.859375 C 5.265625 10.253906 5.628906 11.140625 5.910156 11.664062 C 6.195312 12.1875 6.476562 12.875 6.757812 13.5625 C 7.039062 14.246094 7.726562 15.820312 8.050781 16.464844 C 8.371094 17.113281 9.058594 18.445312 9.503906 19.371094 C 9.945312 20.300781 10.390625 21.148438 10.832031 21.914062 C 11.277344 22.679688 11.761719 23.851562 11.761719 23.851562 L 11.761719 25.585938 L 11.921875 25.585938 L 12.042969 25.910156 L 12.085938 25.667969 L 12.328125 25.425781 L 12.527344 25.828125 C 12.527344 25.828125 12.527344 25.425781 12.449219 24.980469 C 12.367188 24.535156 12.609375 23.972656 12.691406 23.285156 C 12.769531 22.597656 12.769531 22.117188 12.851562 21.632812 C 12.933594 21.148438 13.496094 19.453125 13.777344 18.765625 C 14.0625 18.082031 14.503906 17.070312 14.707031 16.386719 C 14.910156 15.699219 15.152344 14.851562 15.152344 14.851562 L 15.433594 15.417969 C 15.554688 15.660156 15.878906 16.183594 15.878906 16.183594 L 15.957031 16.507812 C 16 16.667969 16.484375 17.597656 16.644531 17.917969 C 16.804688 18.242188 17.773438 19.734375 18.015625 20.058594 C 18.257812 20.378906 18.863281 21.105469 18.863281 21.105469 L 18.945312 21.753906 C 18.945312 21.753906 19.429688 22.480469 19.589844 22.761719 C 19.695312 22.945312 19.679688 23.621094 19.792969 23.769531 C 19.851562 23.847656 19.851562 23.171875 19.992188 23.285156 C 20.355469 23.574219 20.394531 23.636719 20.394531 23.648438 L 20.195312 23.003906 L 20.15625 22.15625 L 20.597656 22.71875 L 20.476562 21.753906 C 20.476562 21.753906 20.558594 20.945312 20.761719 20.058594 C 20.960938 19.167969 21.285156 18.804688 21.648438 17.234375 L 22.375 15.816406 L 22.664062 14.882812 L 23.304688 12.84375 L 24.003906 11.097656 C 24.003906 11.097656 24.0625 9.640625 24.238281 9.230469 C 24.414062 8.824219 25.171875 6.785156 25.171875 6.785156 Z M 7.605469 13.078125 L 7.445312 12.472656 L 7.765625 12.996094 L 7.886719 13.480469 Z M 11.558594 22.359375 L 11.398438 22.277344 L 11.316406 21.632812 L 10.753906 20.421875 L 10.914062 20.21875 L 11.15625 20.300781 L 11.679688 21.390625 Z M 12.367188 23.890625 L 12.164062 23.207031 L 12.003906 23.125 L 12.125 22.519531 L 12.449219 22.480469 Z M 12.488281 22.15625 L 12.207031 22.195312 L 12.367188 21.753906 L 12.570312 21.632812 Z M 19.953125 22.316406 L 19.507812 21.914062 L 19.628906 21.671875 L 19.953125 22.074219 Z M 19.953125 22.316406 "/>
</g>
</svg>
